<svg width="370" height="375" viewBox="0 0 370 375" fill="none" xmlns="http://www.w3.org/2000/svg">
<g opacity="0.7">
<path d="M317.401 117.244C336.459 95.7966 336.459 61.0242 317.401 39.5773C298.342 18.1304 267.442 18.1304 248.383 39.5773C229.325 61.0242 229.325 95.7966 248.383 117.244C267.442 138.69 298.342 138.69 317.401 117.244Z" fill="#D5EEE2"/>
<path d="M297.4 104.261C297.4 104.261 296.427 94.1653 309.038 95.26C309.038 95.26 311.677 85.6103 320.982 84.3433C331.475 82.914 334.979 91.4995 336.186 93.4051C336.186 93.4051 352.967 88.712 354.904 104.261H297.4Z" fill="white"/>
<path d="M11.2499 160.202C11.2499 160.202 11.9345 145.9 25.6439 150.38C25.6439 150.38 30.9222 140.7 40.7854 143.498C44.0281 144.42 46.9105 146.66 48.5318 149.955C49.7388 152.418 50.5045 155.823 49.4686 160.202H11.2499Z" fill="white"/>
<path d="M137.763 256.762H87.4648V372.984H137.763V256.762Z" fill="#C8E4D6"/>
<path d="M66.465 260.582H23.4453V372.983H66.465V260.582Z" fill="#D5EEE2"/>
<path d="M61.0988 260.582H18.9258V267.049H61.0988V260.582Z" fill="#C8E4D6"/>
<path d="M96.4149 198.396H46.1172V372.984H96.4149V198.396Z" fill="#D5EEE2"/>
<path d="M147.014 221.102H108.309V372.983H147.014V221.102Z" fill="#C8E4D6"/>
<path d="M350.074 227.244H304.145V235.576H308.226V246.817H294.742V175.062H261.945V373.936H345.436V235.576H350.074V227.244Z" fill="#D5EEE2"/>
<path d="M89.8633 154.02H105.788" stroke="#96BDA9" stroke-width="4.82866" stroke-miterlimit="10"/>
<path d="M89.8633 228.146H105.788" stroke="#96BDA9" stroke-width="4.82866" stroke-miterlimit="10"/>
<path d="M89.8633 189.324H105.788" stroke="#96BDA9" stroke-width="4.82866" stroke-miterlimit="10"/>
<path d="M95.286 133.463H69.957V249.371H95.286V133.463Z" fill="#D0F2E3"/>
<path d="M78.8596 156.995H80.1018V152.819H84.7796V156.995H86.0218V147.824H84.7796V151.683H80.1018V147.824H78.8596V156.995Z" fill="#75AC93"/>
<path d="M82.4546 174.746C85.0446 174.746 87.0664 172.658 87.0664 170.029C87.0664 167.386 85.0314 165.311 82.4282 165.311C79.8382 165.311 77.8164 167.386 77.8164 170.015C77.8164 172.645 79.8646 174.746 82.4546 174.746ZM82.4282 173.557C80.4857 173.557 79.0982 172.077 79.0982 170.015C79.0982 167.967 80.4857 166.5 82.4282 166.5C84.3839 166.5 85.7846 167.98 85.7846 170.015C85.7846 172.077 84.3839 173.557 82.4282 173.557Z" fill="#75AC93"/>
<path d="M81.8266 192.233H83.0687V184.199H86.1741V183.062H78.708V184.199H81.8266V192.233Z" fill="#75AC93"/>
<path d="M79.6274 209.852H85.7324V208.716H80.8696V205.703H85.2964V204.619H80.8696V201.818H85.6664V200.681H79.6274V209.852Z" fill="#75AC93"/>
<path d="M79.8791 227.471H85.6405V226.335H81.1212V218.3H79.8791V227.471Z" fill="#75AC93"/>
<path d="M96.5849 250.821H68.6797V132.014H96.5849V250.821ZM71.2558 247.922H94.0177V134.903H71.2558V247.922Z" fill="#88BCA4"/>
<path d="M241.382 77.8652H132.86V97.6107H241.382V77.8652Z" fill="#D0F2E3"/>
<path d="M211.509 144.529C233.829 129.365 241 96.711 227.525 71.5937C214.05 46.4763 185.032 38.4074 162.712 53.5711C140.391 68.7348 133.221 101.389 146.696 126.506C160.171 151.624 189.189 159.693 211.509 144.529Z" fill="#D0F2E3"/>
<path d="M157.352 77.0862C157.352 77.0862 166.837 55.6074 186.969 55.6074C207.1 55.6074 216.891 77.0862 216.891 77.0862H157.361H157.352Z" fill="#D0F2F4"/>
<path d="M180.347 77.0857L176.231 76.0923L187.923 54.7656L192.129 55.6069L180.347 77.0857Z" fill="#EEF8FF"/>
<path d="M185.303 77.8656L183.051 76.3046L194.347 56.0625L196.598 57.6235L185.303 77.8656Z" fill="#EEF8FF"/>
<path d="M219.034 78.5651H155.243L156.179 76.4365C156.278 76.2135 166.268 54.1367 186.967 54.1367C207.666 54.1367 217.637 75.5141 218.052 76.4264L219.034 78.5753V78.5651ZM159.629 75.6155H214.566C211.494 70.3243 202.289 57.0864 186.958 57.0864C171.627 57.0864 162.593 70.3446 159.62 75.6155H159.629Z" fill="#88BCA4"/>
<path d="M188.274 55.6074H185.653V77.0862H188.274V55.6074Z" fill="#88BCA4"/>
<path d="M268.437 89.2891H105.789V372.618H268.437V89.2891Z" fill="#D0F2E3"/>
<path d="M268.437 92.8281H105.789V102.397H268.437V92.8281Z" fill="#88BCA4"/>
<path d="M268.437 84.1914H105.789V89.2899H268.437V84.1914Z" fill="#88BCA4"/>
<path d="M268.437 194.564H105.789V198.429H268.437V194.564Z" fill="#88BCA4"/>
<path d="M268.437 279.934H105.789V283.798H268.437V279.934Z" fill="#88BCA4"/>
<path d="M245.296 124.078H223.985V173.482H245.296V124.078Z" fill="#D0F2F4"/>
<path d="M225.677 160.68L223.785 155.622L241.728 122.902L245.115 125.254L225.677 160.68Z" fill="#EEF8FF"/>
<path d="M243.914 131.924L222.832 170.336L225.085 171.902L246.167 133.49L243.914 131.924Z" fill="#EEF8FF"/>
<path d="M249.523 174.971H219.321V180.819H249.523V174.971Z" fill="#88BCA4"/>
<path d="M249.523 180.82H219.321V184.573H249.523V180.82Z" fill="#88BCA4"/>
<path d="M246.613 174.961H222.68V122.607H246.613V174.961ZM225.301 172.012H243.992V125.557H225.301V172.012Z" fill="#88BCA4"/>
<path d="M245.296 147.309H223.985V150.26H245.296V147.309Z" fill="#88BCA4"/>
<path d="M197.843 124.078H176.531V173.482H197.843V124.078Z" fill="#D0F2F4"/>
<path d="M178.219 160.68L176.336 155.622L194.279 122.902L197.657 125.254L178.219 160.68Z" fill="#EEF8FF"/>
<path d="M196.469 131.934L175.387 170.346L177.64 171.912L198.722 133.5L196.469 131.934Z" fill="#EEF8FF"/>
<path d="M202.062 174.971H171.86V180.819H202.062V174.971Z" fill="#88BCA4"/>
<path d="M202.062 180.82H171.86V184.573H202.062V180.82Z" fill="#88BCA4"/>
<path d="M199.152 174.961H175.219V122.607H199.152V174.961ZM177.84 172.012H196.531V125.557H177.84V172.012Z" fill="#88BCA4"/>
<path d="M197.847 147.309H176.535V150.26H197.847V147.309Z" fill="#88BCA4"/>
<path d="M150.386 124.078H129.074V173.482H150.386V124.078Z" fill="#D0F2F4"/>
<path d="M130.767 160.68L128.875 155.622L146.818 122.902L150.205 125.254L130.767 160.68Z" fill="#EEF8FF"/>
<path d="M149.003 131.934L127.922 170.346L130.175 171.912L151.257 133.5L149.003 131.934Z" fill="#EEF8FF"/>
<path d="M154.612 174.971H124.41V180.819H154.612V174.971Z" fill="#88BCA4"/>
<path d="M154.612 180.82H124.41V184.573H154.612V180.82Z" fill="#88BCA4"/>
<path d="M151.703 174.961H127.77V122.607H151.703V174.961ZM130.391 172.012H149.081V125.557H130.391V172.012Z" fill="#88BCA4"/>
<path d="M150.386 147.309H129.074V150.26H150.386V147.309Z" fill="#88BCA4"/>
<path d="M245.3 210.236H223.989V259.64H245.3V210.236Z" fill="#D0F2F4"/>
<path d="M225.681 246.839L223.789 241.77L241.732 209.061L245.119 211.412L225.681 246.839Z" fill="#EEF8FF"/>
<path d="M243.926 218.102L222.844 256.514L225.097 258.08L246.179 219.668L243.926 218.102Z" fill="#EEF8FF"/>
<path d="M249.523 261.129H219.321V266.978H249.523V261.129Z" fill="#88BCA4"/>
<path d="M249.523 266.979H219.321V270.732H249.523V266.979Z" fill="#88BCA4"/>
<path d="M246.613 261.12H222.68V208.766H246.613V261.12ZM225.301 258.17H243.992V211.715H225.301V258.17Z" fill="#88BCA4"/>
<path d="M245.296 233.457H223.985V236.409H245.296V233.457Z" fill="#88BCA4"/>
<path d="M197.847 210.236H176.535V259.641H197.847V210.236Z" fill="#D0F2F4"/>
<path d="M178.219 246.839L176.336 241.77L194.279 209.061L197.657 211.412L178.219 246.839Z" fill="#EEF8FF"/>
<path d="M196.48 218.104L175.399 256.516L177.652 258.082L198.733 219.67L196.48 218.104Z" fill="#EEF8FF"/>
<path d="M202.062 261.129H171.86V266.978H202.062V261.129Z" fill="#88BCA4"/>
<path d="M202.062 266.979H171.86V270.732H202.062V266.979Z" fill="#88BCA4"/>
<path d="M199.152 261.12H175.219V208.766H199.152V261.12ZM177.84 258.17H196.531V211.715H177.84V258.17Z" fill="#88BCA4"/>
<path d="M197.847 233.457H176.535V236.409H197.847V233.457Z" fill="#88BCA4"/>
<path d="M150.386 210.236H129.075V259.641H150.386V210.236Z" fill="#D0F2F4"/>
<path d="M130.771 246.839L128.879 241.77L146.822 209.061L150.209 211.412L130.771 246.839Z" fill="#EEF8FF"/>
<path d="M149.015 218.102L127.934 256.514L130.187 258.08L151.269 219.668L149.015 218.102Z" fill="#EEF8FF"/>
<path d="M154.613 261.129H124.41V266.978H154.613V261.129Z" fill="#88BCA4"/>
<path d="M154.613 266.979H124.41V270.732H154.613V266.979Z" fill="#88BCA4"/>
<path d="M151.703 261.12H127.77V208.766H151.703V261.12ZM130.391 258.17H149.081V211.715H130.391V258.17Z" fill="#88BCA4"/>
<path d="M150.386 233.457H129.075V236.409H150.386V233.457Z" fill="#88BCA4"/>
<path d="M234.257 300.732H139.688V372.619H234.257V300.732Z" fill="#88BCA4"/>
<path d="M204.249 311.134C206.518 300.417 200.637 289.659 191.113 287.106C181.589 284.553 172.03 291.171 169.761 301.888C167.492 312.605 173.373 323.363 182.897 325.916C192.42 328.469 201.98 321.851 204.249 311.134Z" fill="#88BCA4"/>
<path d="M226.195 309.5H147.758V372.619H226.195V309.5Z" fill="#88BCA4"/>
<path d="M186.977 308.537V371.189" stroke="#6EA68A" stroke-width="4.64861" stroke-miterlimit="10"/>
<path d="M186.978 291.832L188.41 295.694L192.113 296.028L189.293 298.755L190.149 302.83L186.978 300.651L183.808 302.83L184.663 298.755L181.844 296.028L185.546 295.694L186.978 291.832Z" fill="#D0F2E3"/>
<path d="M180.626 339.412C180.626 340.628 179.752 341.602 178.68 341.602C177.608 341.602 176.735 340.618 176.735 339.412C176.735 338.206 177.608 337.223 178.68 337.223C179.752 337.223 180.626 338.206 180.626 339.412Z" fill="#88BCA4"/>
<path d="M197.22 339.412C197.22 340.628 196.346 341.602 195.274 341.602C194.202 341.602 193.328 340.618 193.328 339.412C193.328 338.206 194.202 337.223 195.274 337.223C196.346 337.223 197.22 338.206 197.22 339.412Z" fill="#88BCA4"/>
<path d="M326.486 306.46C326.486 300.581 324.829 295.168 322.045 290.83C321.082 289.33 320.685 287.505 320.892 285.671C321.001 284.687 321.064 283.674 321.064 282.65C321.064 270.831 313.795 261.242 304.823 261.242C295.852 261.242 288.583 270.831 288.583 282.65C288.583 283.674 288.637 284.687 288.754 285.671C288.961 287.505 288.556 289.33 287.601 290.83C284.818 295.168 283.16 300.581 283.16 306.46C283.16 312.339 284.718 317.397 287.34 321.665C288.285 323.205 288.736 325.05 288.637 326.925C288.61 327.422 288.592 327.929 288.592 328.436C288.592 340.254 295.861 349.843 304.832 349.843C313.804 349.843 321.073 340.254 321.073 328.436C321.073 327.929 321.055 327.422 321.028 326.925C320.929 325.05 321.37 323.215 322.325 321.665C324.946 317.397 326.504 312.157 326.504 306.46H326.486Z" fill="#D0F2E3"/>
<path d="M304.813 283.035H303.012V371.89H304.813V283.035Z" fill="#88BCA4"/>
<path d="M297.174 294.327L295.82 295.648L303.24 305.273L304.594 303.951L297.174 294.327Z" fill="#88BCA4"/>
<path d="M312.527 310.257L303.285 320.643L304.552 322.07L313.794 311.684L312.527 310.257Z" fill="#88BCA4"/>
<path d="M90.8301 306.46C90.8301 300.581 89.1727 295.168 86.3894 290.83C85.4256 289.33 85.0293 287.505 85.2364 285.671C85.3445 284.687 85.4076 283.674 85.4076 282.65C85.4076 270.831 78.1386 261.242 69.1671 261.242C60.1957 261.242 52.9266 270.831 52.9266 282.65C52.9266 283.674 52.9807 284.687 53.0978 285.671C53.3049 287.505 52.8996 289.33 51.9448 290.83C49.1615 295.168 47.5041 300.581 47.5041 306.46C47.5041 312.339 49.0624 317.397 51.6836 321.665C52.6294 323.205 53.0798 325.05 52.9807 326.925C52.9536 327.422 52.9356 327.929 52.9356 328.436C52.9356 340.254 60.2046 349.843 69.1761 349.843C78.1475 349.843 85.4166 340.254 85.4166 328.436C85.4166 327.929 85.3986 327.422 85.3716 326.925C85.2725 325.05 85.7139 323.215 86.6686 321.665C89.2898 317.397 90.8481 312.157 90.8481 306.46H90.8301Z" fill="#D0F2E3"/>
<path d="M69.1496 283.035H67.3481V371.89H69.1496V283.035Z" fill="#88BCA4"/>
<path d="M61.5107 294.319L60.1567 295.641L67.5759 305.265L68.9299 303.944L61.5107 294.319Z" fill="#88BCA4"/>
<path d="M76.8462 310.138L67.6059 320.525L68.8727 321.952L78.113 311.565L76.8462 310.138Z" fill="#88BCA4"/>
<path d="M370 371.189H0V374.05H370V371.189Z" fill="#88BCA4"/>
</g>
</svg>
