<svg width="61" height="44" viewBox="0 0 61 44" fill="none" xmlns="http://www.w3.org/2000/svg">
<path d="M57.3024 1.89844H3.69638C1.78221 1.89844 0.230469 3.45018 0.230469 5.36435V38.6371C0.230469 40.5512 1.78221 42.103 3.69638 42.103H57.3024C59.2166 42.103 60.7683 40.5512 60.7683 38.6371V5.36435C60.7683 3.45018 59.2166 1.89844 57.3024 1.89844Z" fill="white"/>
<mask id="mask0_1_37" style="mask-type:luminance" maskUnits="userSpaceOnUse" x="5" y="13" width="51" height="18">
<path d="M55.9181 13.7734H5.08203V30.2259H55.9181V13.7734Z" fill="white"/>
</mask>
<g mask="url(#mask0_1_37)">
<path d="M27.1102 29.989H22.9922L25.5679 14.0625H29.6858L27.1102 29.989Z" fill="#00579F"/>
<path d="M42.0406 14.4515C41.2283 14.1293 39.94 13.7734 38.347 13.7734C34.2802 13.7734 31.4165 15.942 31.3989 19.0425C31.3651 21.33 33.4493 22.6005 35.0081 23.3632C36.6013 24.1426 37.1429 24.6513 37.1429 25.346C37.1267 26.413 35.8555 26.9048 34.6699 26.9048C33.0257 26.9048 32.1448 26.6512 30.806 26.0576L30.2638 25.8032L29.6875 29.3783C30.6533 29.8183 32.4328 30.2088 34.2802 30.2259C38.6012 30.2259 41.4143 28.0909 41.4477 24.7869C41.4641 22.9739 40.3636 21.5847 37.9909 20.4495C36.5506 19.7208 35.6685 19.2294 35.6685 18.4838C35.6855 17.806 36.4146 17.1117 38.0405 17.1117C39.3793 17.0777 40.3629 17.3995 41.1081 17.7215L41.4805 17.8906L42.0406 14.4515Z" fill="#00579F"/>
<path d="M47.5122 24.3468C47.851 23.4318 49.156 19.8907 49.156 19.8907C49.1389 19.9247 49.4947 18.9589 49.698 18.3659L49.9855 19.7382C49.9855 19.7382 50.7655 23.5505 50.9347 24.3468C50.2914 24.3468 48.3255 24.3468 47.5122 24.3468ZM52.5951 14.0625H49.4097C48.4277 14.0625 47.6814 14.3503 47.2576 15.3839L41.1406 29.9887H45.4616C45.4616 29.9887 46.173 28.023 46.326 27.5996C46.8001 27.5996 51.0035 27.5996 51.6131 27.5996C51.7314 28.1588 52.1043 29.9887 52.1043 29.9887H55.9173L52.5951 14.0625Z" fill="#00579F"/>
<path d="M19.5539 14.0625L15.521 24.9228L15.0802 22.7202C14.3347 20.1787 11.9963 17.4174 9.38672 16.0444L13.0808 29.972H17.4355L23.9084 14.0625H19.5539Z" fill="#00579F"/>
<path d="M11.7754 14.0623H5.14978L5.08203 14.3841C10.2504 15.7057 13.6733 18.8915 15.0796 22.7207L13.6393 15.401C13.4022 14.3838 12.6734 14.0958 11.7754 14.0623Z" fill="#FAA61A"/>
</g>
<path d="M57.3024 1.89844H3.69638C1.78221 1.89844 0.230469 3.45018 0.230469 5.36435V38.6371C0.230469 40.5512 1.78221 42.103 3.69638 42.103H57.3024C59.2166 42.103 60.7683 40.5512 60.7683 38.6371V5.36435C60.7683 3.45018 59.2166 1.89844 57.3024 1.89844Z" stroke="#E0E6EB" stroke-width="0.462121"/>
</svg>
