<svg width="61" height="44" viewBox="0 0 61 44" fill="none" xmlns="http://www.w3.org/2000/svg">
<path d="M57.3024 1.89844H3.69638C1.78221 1.89844 0.230469 3.45018 0.230469 5.36435V38.6371C0.230469 40.5512 1.78221 42.103 3.69638 42.103H57.3024C59.2166 42.103 60.7683 40.5512 60.7683 38.6371V5.36435C60.7683 3.45018 59.2166 1.89844 57.3024 1.89844Z" fill="white"/>
<mask id="mask0_1_61" style="mask-type:luminance" maskUnits="userSpaceOnUse" x="11" y="6" width="39" height="32">
<path d="M49.9341 6.90625H11.0625V37.0947H49.9341V6.90625Z" fill="white"/>
</mask>
<g mask="url(#mask0_1_61)">
<path d="M18.1078 37.0287V35.0252C18.1078 34.2589 17.641 33.757 16.8396 33.757C16.4388 33.757 16.0032 33.8893 15.7036 34.325C15.4702 33.9593 15.1356 33.757 14.6338 33.757C14.2992 33.757 13.9646 33.8582 13.7001 34.2238V33.8231H12.9999V37.0287H13.7001V35.2587C13.7001 34.6907 13.9997 34.4222 14.4665 34.4222C14.9333 34.4222 15.1667 34.7218 15.1667 35.2587V37.0287H15.867V35.2587C15.867 34.6907 16.2015 34.4222 16.6334 34.4222C17.1002 34.4222 17.3336 34.7218 17.3336 35.2587V37.0287H18.1078ZM28.4948 33.8231H27.3588V32.8545H26.6586V33.8231H26.0245V34.4573H26.6586V35.9278C26.6586 36.6631 26.9582 37.0949 27.7595 37.0949C28.0591 37.0949 28.3936 36.9937 28.6271 36.8614L28.4247 36.2585C28.2225 36.3907 27.9891 36.4258 27.8218 36.4258C27.4872 36.4258 27.3549 36.2234 27.3549 35.8928V34.4573H28.4909V33.8231H28.4948ZM34.4391 33.7531C34.0384 33.7531 33.77 33.9554 33.6027 34.22V33.8192H32.9025V37.0248H33.6027V35.2198C33.6027 34.6868 33.8361 34.3834 34.2718 34.3834C34.4041 34.3834 34.5714 34.4183 34.7076 34.4495L34.9098 33.7803C34.7698 33.7531 34.5714 33.7531 34.4391 33.7531ZM25.4565 34.0877C25.1219 33.8543 24.6551 33.7531 24.1533 33.7531C23.3519 33.7531 22.8189 34.1538 22.8189 34.7879C22.8189 35.3209 23.2196 35.6243 23.9198 35.7216L24.2544 35.7566C24.6201 35.8227 24.8224 35.9239 24.8224 36.0912C24.8224 36.3246 24.554 36.4919 24.0871 36.4919C23.6203 36.4919 23.2507 36.3246 23.0173 36.1573L22.6827 36.6903C23.0484 36.9587 23.5502 37.091 24.0521 37.091C24.9858 37.091 25.5226 36.6552 25.5226 36.0561C25.5226 35.4882 25.0869 35.1886 24.4217 35.0875L24.0871 35.0525C23.7876 35.0174 23.5542 34.9513 23.5542 34.7529C23.5542 34.5195 23.7876 34.3872 24.1571 34.3872C24.5579 34.3872 24.9586 34.5545 25.1608 34.6556L25.4565 34.0877ZM44.087 33.7531C43.6863 33.7531 43.4178 33.9554 43.2506 34.22V33.8192H42.5503V37.0248H43.2506V35.2198C43.2506 34.6868 43.484 34.3834 43.9197 34.3834C44.052 34.3834 44.2193 34.4183 44.3554 34.4495L44.5577 33.7881C44.4215 33.7531 44.2231 33.7531 44.087 33.7531ZM35.1394 35.426C35.1394 36.3946 35.8085 37.0949 36.8433 37.0949C37.3101 37.0949 37.6447 36.9937 37.9792 36.7292L37.6447 36.1612C37.3763 36.3635 37.1117 36.4607 36.8083 36.4607C36.2403 36.4607 35.8396 36.06 35.8396 35.426C35.8396 34.8229 36.2403 34.4222 36.8083 34.3911C37.1078 34.3911 37.3763 34.4923 37.6447 34.6907L37.9792 34.1227C37.6447 33.8543 37.3101 33.757 36.8433 33.757C35.8085 33.7531 35.1394 34.4573 35.1394 35.426ZM41.6166 35.426V33.8231H40.9164V34.2238C40.683 33.9243 40.3484 33.757 39.9127 33.757C39.0102 33.757 38.3099 34.4573 38.3099 35.426C38.3099 36.3946 39.0102 37.0949 39.9127 37.0949C40.3795 37.0949 40.7141 36.9276 40.9164 36.628V37.0287H41.6166V35.426ZM39.0452 35.426C39.0452 34.858 39.4109 34.3911 40.0139 34.3911C40.5819 34.3911 40.9826 34.8268 40.9826 35.426C40.9826 35.9939 40.5819 36.4607 40.0139 36.4607C39.4148 36.4258 39.0452 35.99 39.0452 35.426ZM30.6656 33.7531C29.7319 33.7531 29.0627 34.4222 29.0627 35.422C29.0627 36.4258 29.7319 37.091 30.7006 37.091C31.1674 37.091 31.6342 36.9587 32.0038 36.6552L31.6693 36.1534C31.4008 36.3557 31.0663 36.488 30.7356 36.488C30.2999 36.488 29.868 36.2857 29.7669 35.7216H32.1361C32.1361 35.6205 32.1361 35.5543 32.1361 35.4532C32.1672 34.4222 31.5642 33.7531 30.6656 33.7531ZM30.6656 34.3561C31.1013 34.3561 31.4008 34.6245 31.4669 35.1225H29.798C29.8642 34.6907 30.1637 34.3561 30.6656 34.3561ZM48.063 35.426V32.5549H47.3624V34.2238C47.129 33.9243 46.7944 33.757 46.3591 33.757C45.4564 33.757 44.7561 34.4573 44.7561 35.426C44.7561 36.3946 45.4564 37.0949 46.3591 37.0949C46.8259 37.0949 47.1604 36.9276 47.3624 36.628V37.0287H48.063V35.426ZM45.4913 35.426C45.4913 34.858 45.8571 34.3911 46.4599 34.3911C47.0278 34.3911 47.4289 34.8268 47.4289 35.426C47.4289 35.9939 47.0278 36.4607 46.4599 36.4607C45.8571 36.4258 45.4913 35.99 45.4913 35.426ZM22.0486 35.426V33.8231H21.3484V34.2238C21.115 33.9243 20.7804 33.757 20.3447 33.757C19.4421 33.757 18.7419 34.4573 18.7419 35.426C18.7419 36.3946 19.4421 37.0949 20.3447 37.0949C20.8115 37.0949 21.1461 36.9276 21.3484 36.628V37.0287H22.0486V35.426ZM19.4461 35.426C19.4461 34.858 19.8117 34.3911 20.4147 34.3911C20.9827 34.3911 21.3834 34.8268 21.3834 35.426C21.3834 35.9939 20.9827 36.4607 20.4147 36.4607C19.8117 36.4258 19.4461 35.99 19.4461 35.426Z" fill="#2D286F"/>
<path d="M35.7419 9.47852H25.2227V28.3774H35.7419V9.47852Z" fill="#FF5A00"/>
<path d="M25.9233 18.9272C25.9233 15.0875 27.7284 11.6796 30.4983 9.47772C28.4597 7.87495 25.8883 6.90625 23.0834 6.90625C16.4388 6.90625 11.0625 12.2826 11.0625 18.9272C11.0625 25.5717 16.4388 30.9481 23.0834 30.9481C25.8883 30.9481 28.4597 29.9794 30.4983 28.3766C27.7245 26.2059 25.9233 22.7669 25.9233 18.9272Z" fill="#EB001B"/>
<path d="M49.9359 18.9272C49.9359 25.5717 44.5594 30.9481 37.9148 30.9481C35.11 30.9481 32.5385 29.9794 30.5 28.3766C33.3049 26.1708 35.075 22.7669 35.075 18.9272C35.075 15.0875 33.2699 11.6796 30.5 9.47772C32.5346 7.87495 35.1061 6.90625 37.9109 6.90625C44.5594 6.90625 49.9359 12.3176 49.9359 18.9272Z" fill="#F79E1B"/>
</g>
<path d="M57.3024 1.89844H3.69638C1.78221 1.89844 0.230469 3.45018 0.230469 5.36435V38.6371C0.230469 40.5512 1.78221 42.103 3.69638 42.103H57.3024C59.2166 42.103 60.7683 40.5512 60.7683 38.6371V5.36435C60.7683 3.45018 59.2166 1.89844 57.3024 1.89844Z" stroke="#E0E6EB" stroke-width="0.462121"/>
</svg>
