<svg width="61" height="44" viewBox="0 0 61 44" fill="none" xmlns="http://www.w3.org/2000/svg">
<path d="M57.303 1.66602H3.69697C1.65519 1.66602 0 3.32121 0 5.36299V38.6357C0 40.6775 1.65519 42.3327 3.69697 42.3327H57.303C59.3448 42.3327 61 40.6775 61 38.6357V5.36299C61 3.32121 59.3448 1.66602 57.303 1.66602Z" fill="#F5F7F8"/>
<path d="M44.4817 10.0793V15.6432H42.5023L41.1462 11.0656H41.1095L41.1828 15.6432H39.8266V10.0793H41.8792L43.1621 14.4896H43.1805L43.1071 10.0793H44.4817ZM16.0015 15.6992L17.0278 10.0793H19.4836L20.5099 15.6992H19.0254L18.274 10.5818H18.2557L17.486 15.6992H16.0015ZM27.6574 10.0793L27.7858 15.6992H26.3929L26.3562 10.6376H26.3196L25.4033 15.6992H23.9921L23.0757 10.6376H23.0391L23.0024 15.6992H21.6096L21.7379 10.0793H24.0104L24.6885 14.378H24.7068L25.4033 10.0793H27.6574ZM36.3261 14.8432C36.7112 14.8432 36.8393 14.5827 36.8576 14.4336C36.876 14.378 36.876 14.2849 36.876 14.2105V10.0795H38.2872V14.1175C38.2872 14.2291 38.2688 14.4336 38.2688 14.4896C38.1772 15.5317 37.3525 15.8852 36.326 15.8852C35.2996 15.8852 34.4933 15.5501 34.4016 14.4896C34.4016 14.4336 34.3833 14.2291 34.3833 14.1175V10.0795H35.7945V14.2475C35.7945 14.3219 35.7945 14.3966 35.8128 14.471C35.8313 14.5827 35.9413 14.8432 36.3261 14.8432ZM13.6556 14.0989C13.7106 14.2289 13.6923 14.415 13.6739 14.508C13.619 14.6941 13.509 14.8802 13.1241 14.8802C12.7759 14.8802 12.5743 14.6755 12.5743 14.378V13.8383H11.0898V14.2661C11.0898 15.5317 12.0612 15.9038 13.1058 15.9038C14.1138 15.9038 14.9385 15.5503 15.0668 14.6199C15.1401 14.1361 15.0851 13.8199 15.0668 13.6895C14.8285 12.5174 12.7209 12.1636 12.5743 11.4939C12.556 11.3823 12.556 11.2706 12.5743 11.1962C12.611 11.0101 12.7393 10.824 13.0875 10.824C13.4174 10.824 13.6006 11.0287 13.6006 11.3264V11.68H14.9752V11.2892C14.9752 10.0611 13.8939 9.875 13.1058 9.875C12.1162 9.875 11.3098 10.2099 11.1631 11.1218C11.1265 11.3637 11.1265 11.587 11.1815 11.8847C11.4014 13.0566 13.3807 13.3732 13.6556 14.0989ZM31.6711 14.0989C31.7261 14.2289 31.7078 14.3966 31.6894 14.508C31.6528 14.6941 31.5245 14.8802 31.1579 14.8802C30.8097 14.8802 30.6081 14.6755 30.6081 14.378V13.8383H29.142V14.2661C29.142 15.5131 30.1133 15.8852 31.1396 15.8852C32.1293 15.8852 32.954 15.5501 33.0823 14.6197C33.1556 14.1359 33.1008 13.8198 33.0823 13.7079C32.844 12.5358 30.7731 12.2009 30.6266 11.5495C30.59 11.4379 30.6083 11.3262 30.6266 11.2518C30.6633 11.0657 30.7915 10.8797 31.1215 10.8797C31.4513 10.8797 31.6346 11.0844 31.6346 11.3821V11.7356H33.0091V11.3449C33.0091 10.1354 31.9279 9.94926 31.1581 9.94926C30.1868 9.94926 29.3804 10.2656 29.2338 11.1774C29.1971 11.4193 29.1788 11.6426 29.2521 11.9217C29.4535 13.0566 31.3962 13.3732 31.6711 14.0989ZM47.8904 14.7872C48.2934 14.7872 48.4218 14.5267 48.4588 14.378C48.4768 14.3219 48.4768 14.2289 48.4768 14.1729V13.3545H47.9089V12.5356H49.8697V14.0429C49.8697 14.1545 49.8697 14.2289 49.8512 14.415C49.7597 15.4384 48.8798 15.8106 47.8904 15.8106C46.919 15.8106 46.0393 15.4384 45.9476 14.415C45.9293 14.2289 45.9293 14.1545 45.9293 14.0429V11.6796C45.9293 11.5866 45.9476 11.4005 45.9476 11.3075C46.0759 10.2468 46.9005 9.91188 47.8904 9.91188C48.8798 9.91188 49.7417 10.2468 49.8332 11.3075C49.8516 11.475 49.8516 11.6796 49.8516 11.6796V11.8657H48.4588V11.5494C48.4588 11.5494 48.4588 11.4191 48.4403 11.3261C48.4218 11.1958 48.3119 10.9167 47.8904 10.9167C47.4874 10.9167 47.377 11.1958 47.3405 11.3261C47.322 11.4005 47.322 11.4935 47.322 11.5866V14.1543C47.322 14.2287 47.322 14.3034 47.3405 14.359C47.3405 14.5452 47.4874 14.7872 47.8904 14.7872Z" fill="#77A4E6"/>
<path d="M11.1644 34.0934V18.1522H13.7342V19.3234C14.0924 18.7378 14.7753 18.3474 15.3283 18.1522C15.8814 17.957 16.4345 17.8919 17.0201 17.8919C18.4512 17.8919 19.948 18.3799 21.1843 19.6487C22.3229 20.8199 22.9086 22.2839 22.9086 23.9756C22.9086 24.7564 22.7459 25.5372 22.4534 26.2529C22.1606 27.0015 21.7377 27.6522 21.2169 28.2049C20.6641 28.7909 20.0134 29.2463 19.3299 29.5388C18.6142 29.8316 17.9635 29.9943 17.1177 29.9943C16.4995 29.9943 15.8814 29.897 15.3283 29.7015C14.7753 29.5063 13.9945 29.084 13.7017 28.596V34.1266H11.1641L11.1644 34.0934ZM16.9228 20.137C15.9793 20.137 15.166 20.4298 14.5153 21.113C13.8321 21.8288 13.5719 22.8373 13.5719 23.8783C13.5719 24.9516 13.8324 26.0255 14.4831 26.7409C15.1663 27.457 15.9796 27.7169 16.9556 27.7169C17.9316 27.7169 18.745 27.3269 19.3306 26.7084C20.0141 25.993 20.3394 25.0492 20.3394 24.0081C20.3394 22.8695 20.0141 21.8935 19.3306 21.1778C18.7447 20.5271 17.8988 20.137 16.9228 20.137ZM37.7115 18.1522H40.4118L43.9253 26.3509L47.2112 18.1522H49.9114L43.177 34.0934H40.5093L42.6566 29.0508L37.7115 18.1522ZM33.6123 29.7669V28.5628C33.3195 29.0508 32.5387 29.5063 31.9856 29.6689C31.4 29.8641 30.8141 29.9617 30.1963 29.9617C29.3501 29.9617 28.6995 29.7991 27.9841 29.5063C27.3006 29.2135 26.6499 28.7583 26.0968 28.1724C25.5763 27.6197 25.1537 26.969 24.8605 26.2204C24.5681 25.4718 24.4054 24.7239 24.4054 23.9431C24.4054 22.2513 24.991 20.7874 26.1297 19.6162C27.3659 18.3474 28.895 17.8594 30.2939 17.8594C30.8795 17.8594 31.4326 17.957 31.9856 18.1196C32.5387 18.3148 33.2219 18.7052 33.5794 19.2908V18.1196H36.1496V29.7343H33.612L33.6123 29.7669ZM27.9841 21.1452C27.3006 21.8609 26.9752 22.8695 26.9752 23.9756C26.9752 25.017 27.3006 25.9598 27.9841 26.6759C28.6019 27.294 29.383 27.6844 30.359 27.6844C31.335 27.6844 32.1483 27.4238 32.8315 26.7084C33.515 25.993 33.7424 24.9516 33.7424 23.8455C33.7424 22.8369 33.4822 21.7959 32.7993 21.0802C32.1158 20.397 31.3024 20.1042 30.3919 20.1042C29.383 20.137 28.5697 20.5271 27.9841 21.1452Z" fill="#1E4AC5"/>
</svg>
