<svg width="61" height="44" viewBox="0 0 61 44" fill="none" xmlns="http://www.w3.org/2000/svg">
<path d="M57.3024 1.89844H3.69638C1.78221 1.89844 0.230469 3.45018 0.230469 5.36435V38.6371C0.230469 40.5512 1.78221 42.103 3.69638 42.103H57.3024C59.2166 42.103 60.7683 40.5512 60.7683 38.6371V5.36435C60.7683 3.45018 59.2166 1.89844 57.3024 1.89844Z" fill="white"/>
<mask id="mask0_1_49" style="mask-type:luminance" maskUnits="userSpaceOnUse" x="5" y="11" width="51" height="22">
<path d="M55.3382 11.8027H5.66016V32.1979H55.3382V11.8027Z" fill="white"/>
</mask>
<g mask="url(#mask0_1_49)">
<path d="M14.744 14.4322C14.1619 15.1211 13.2304 15.6644 12.2989 15.5868C12.1825 14.6553 12.6386 13.6656 13.1722 13.0544C13.7543 12.3461 14.7731 11.8416 15.5979 11.8027C15.6949 12.773 15.3165 13.7239 14.744 14.4322ZM15.5882 15.7712C14.2395 15.6935 13.0849 16.5377 12.4445 16.5377C11.7944 16.5377 10.8144 15.81 9.74711 15.8294C8.35963 15.8488 7.06916 16.6347 6.36087 17.8863C4.90546 20.3896 5.98248 24.0961 7.38936 26.1337C8.07825 27.1428 8.903 28.2489 9.98967 28.2101C11.0182 28.1713 11.4257 27.5406 12.6677 27.5406C13.9193 27.5406 14.2783 28.2101 15.365 28.1907C16.4905 28.1713 17.1988 27.1816 17.8877 26.1725C18.6736 25.0276 18.9938 23.9117 19.0132 23.8535C18.9938 23.8341 16.8398 23.0094 16.8204 20.5255C16.801 18.4491 18.5184 17.4594 18.596 17.4012C17.6258 15.9652 16.1121 15.81 15.5882 15.7712ZM23.3794 12.9573V28.0839H25.7275V22.9124H28.978C31.947 22.9124 34.0331 20.8748 34.0331 17.9251C34.0331 14.9755 31.9858 12.9573 29.0556 12.9573H23.3794ZM25.7275 14.9367H28.4346C30.4722 14.9367 31.6365 16.0234 31.6365 17.9349C31.6365 19.8463 30.4722 20.9427 28.4249 20.9427H25.7275V14.9367ZM38.3217 28.2004C39.7965 28.2004 41.1646 27.4533 41.7856 26.2695H41.8341V28.0839H44.0075V20.5546C44.0075 18.3715 42.261 16.9646 39.5733 16.9646C37.0797 16.9646 35.2362 18.3909 35.1683 20.3509H37.2835C37.4582 19.4194 38.3217 18.8081 39.5055 18.8081C40.9414 18.8081 41.7468 19.4776 41.7468 20.7098V21.5443L38.8165 21.7189C36.0901 21.8839 34.6152 22.9997 34.6152 24.9402C34.6152 26.9002 36.1386 28.2004 38.3217 28.2004ZM38.9524 26.4053C37.7007 26.4053 36.9051 25.8038 36.9051 24.882C36.9051 23.9312 37.6716 23.3781 39.1367 23.2908L41.7468 23.1258V23.9797C41.7468 25.3963 40.5436 26.4053 38.9524 26.4053ZM46.9087 32.1979C49.1985 32.1979 50.2753 31.3246 51.2166 28.6758L55.3401 17.1102H52.9533L50.1879 26.0464H50.1394L47.3745 17.1102H44.9196L48.8977 28.1227L48.6842 28.7922C48.3251 29.9275 47.7429 30.3641 46.7049 30.3641C46.5205 30.3641 46.1615 30.3447 46.0159 30.3252V32.1397C46.1518 32.1785 46.734 32.1979 46.9087 32.1979Z" fill="black"/>
</g>
<path d="M57.3024 1.89844H3.69638C1.78221 1.89844 0.230469 3.45018 0.230469 5.36435V38.6371C0.230469 40.5512 1.78221 42.103 3.69638 42.103H57.3024C59.2166 42.103 60.7683 40.5512 60.7683 38.6371V5.36435C60.7683 3.45018 59.2166 1.89844 57.3024 1.89844Z" stroke="#E0E6EB" stroke-width="0.462121"/>
</svg>
