<svg width="19" height="19" viewBox="0 0 19 19" fill="none" xmlns="http://www.w3.org/2000/svg">
<path fill-rule="evenodd" clip-rule="evenodd" d="M9.49999 0.369141C7.46385 0.369141 7.27134 3.91312 6.05911 5.16527C4.84688 6.41742 1.0782 4.98574 0.554587 7.20825C0.0320747 9.4319 3.42235 10.1864 3.84036 12.0941C4.26057 14.0019 2.18922 16.6823 3.95916 18.0163C5.7291 19.3491 7.63435 16.3324 9.49999 16.3324C11.3656 16.3324 13.2709 19.3491 15.0408 18.0163C16.8108 16.6823 14.7405 14.0019 15.1596 12.0941C15.5787 10.1864 18.9679 9.4319 18.4454 7.20825C17.9229 4.98574 14.1531 6.41742 12.942 5.16527C11.7297 3.91312 11.5361 0.369141 9.49999 0.369141Z" fill="#F3BE00"/>
</svg>
